<svg xmlns="http://www.w3.org/2000/svg" version="1.1" width="180" height="38" viewBox="340 370 600 280">
<path d="M0 0 C0.70617462 0.13770309 1.41234924 0.27540619 2.1399231 0.4172821 C9.3712014 1.86691887 16.5076205 3.64325065 23.62402344 5.57397461 C25.75855672 6.14894052 27.89835989 6.70046411 30.0390625 7.25195312 C38.08508662 9.38507808 44.97539673 12.05211363 51.8671875 16.83203125 C53.17980125 17.6763295 54.49353849 18.51888462 55.80859375 19.359375 C58.94019966 21.42844168 62.04748648 23.53273011 65.14306641 25.65527344 C66.65940867 26.69021675 68.18998252 27.70424356 69.72265625 28.71484375 C75.29507848 32.62372068 77.54484652 36.12913042 78.8671875 42.83203125 C79.5684375 42.91453125 80.2696875 42.99703125 80.9921875 43.08203125 C85.53595793 44.26736267 88.63473525 46.03320249 91.28564453 49.90234375 C92.72969883 52.46863158 94.06401979 55.06642648 95.3671875 57.70703125 C95.8420459 58.64216553 96.3169043 59.5772998 96.80615234 60.54077148 C110.19131135 87.17609387 110.19131135 87.17609387 106.8046875 98.33203125 C103.04192063 106.01290858 95.90315085 111.89416296 89.86743164 117.7956543 C87.00677574 120.53728279 87.00677574 120.53728279 84.8671875 123.83203125 C84.2071875 123.83203125 83.5471875 123.83203125 82.8671875 123.83203125 C82.5371875 124.82203125 82.2071875 125.81203125 81.8671875 126.83203125 C81.2071875 126.83203125 80.5471875 126.83203125 79.8671875 126.83203125 C79.47801399 127.70967133 79.47801399 127.70967133 79.08097839 128.6050415 C77.77844317 130.99485395 76.37947696 132.55440099 74.4465332 134.46386719 C73.74853104 135.1584906 73.05052887 135.85311401 72.33137512 136.56878662 C71.57620102 137.3105011 70.82102692 138.05221558 70.04296875 138.81640625 C68.87352974 139.97804291 68.87352974 139.97804291 67.6804657 141.16314697 C65.18490388 143.64090104 62.68278472 146.11189168 60.1796875 148.58203125 C57.69527018 151.03869646 55.21237003 153.4968458 52.73246765 155.95806885 C51.19037449 157.48805524 49.64561711 159.01536278 48.09773254 160.53948975 C44.01501822 164.58484733 40.1363276 168.73132674 36.38639832 173.08673096 C34.57754939 175.1647734 32.67674109 177.12112113 30.7109375 179.05078125 C29.99808594 179.75589844 29.28523437 180.46101562 28.55078125 181.1875 C27.09505208 182.6171875 25.63932292 184.046875 24.18359375 185.4765625 C20.09183641 189.52392465 16.20207676 193.66162231 12.44824219 198.02392578 C10.31537231 200.46309106 8.04939148 202.74571125 5.7421875 205.01953125 C4.93523437 205.81746094 4.12828125 206.61539063 3.296875 207.4375 C2.49507813 208.22769531 1.69328125 209.01789063 0.8671875 209.83203125 C-0.00292969 210.70214844 -0.87304688 211.57226562 -1.76953125 212.46875 C-8.78839894 219.48761769 -14.96216459 222.78742563 -25.0703125 223.26953125 C-33.31148532 222.9590318 -41.24853458 219.9717378 -47.2421875 214.24609375 C-51.07345852 209.35409894 -53.4927387 203.61504957 -56.10302734 198.01123047 C-61.58956853 186.40078318 -68.09921007 175.5077252 -75.03125 164.71484375 C-78.15378343 159.83821003 -81.11972429 154.87648034 -84.0703125 149.89453125 C-88.86212639 141.81128979 -93.90592536 133.918699 -99.12084961 126.10180664 C-99.64557861 125.30895264 -100.17030762 124.51609863 -100.7109375 123.69921875 C-101.41331543 122.64903564 -101.41331543 122.64903564 -102.12988281 121.57763672 C-103.1328125 119.83203125 -103.1328125 119.83203125 -103.1328125 117.83203125 C-103.7928125 117.50203125 -104.4528125 117.17203125 -105.1328125 116.83203125 C-111.43039103 106.97785848 -117.77133756 96.96088339 -116.1328125 84.83203125 C-113.99010431 76.58462615 -108.83631322 71.66013296 -101.68359375 67.359375 C-100.14066558 66.50716185 -98.58555799 65.67637694 -97.015625 64.875 C-94.97410979 63.85726678 -94.97410979 63.85726678 -93.1328125 61.83203125 C-90.93765509 60.58491097 -88.74120981 59.3809965 -86.5078125 58.20703125 C-85.59128906 57.71976562 -85.59128906 57.71976562 -84.65625 57.22265625 C-83.1501536 56.42254254 -81.64170626 55.62685698 -80.1328125 54.83203125 C-80.18501953 52.98738281 -80.18501953 52.98738281 -80.23828125 51.10546875 C-80.26643295 49.47266998 -80.29373163 47.83985635 -80.3203125 46.20703125 C-80.34544922 45.39878906 -80.37058594 44.59054687 -80.39648438 43.7578125 C-80.46920562 37.79467058 -79.57659043 33.66294232 -75.5546875 29.00390625 C-75.00296875 28.5346875 -74.45125 28.06546875 -73.8828125 27.58203125 C-73.07070312 26.86273438 -73.07070312 26.86273438 -72.2421875 26.12890625 C-67.10477661 22.97034993 -62.01816744 22.58193482 -56.1328125 23.01953125 C-55.47216797 23.06779053 -54.81152344 23.1160498 -54.13085938 23.16577148 C-44.09136594 23.97698622 -34.10471036 25.43874426 -24.1328125 26.83203125 C-23.99488281 25.60742188 -23.85695313 24.3828125 -23.71484375 23.12109375 C-22.81321641 15.94912989 -20.75279438 9.50800899 -16.1328125 3.83203125 C-10.34065867 -0.54163593 -6.96633909 -1.39715765 0 0 Z M-33.1328125 178.83203125 C-36.30406769 182.1618492 -37.39024305 184.82933589 -37.6328125 189.33203125 C-37.39862863 193.81929632 -36.24342494 196.48214093 -33.1328125 199.83203125 C-27.67810979 203.08387325 -24.11678971 203.27976767 -18.1328125 201.83203125 C-14.58768572 199.59706002 -12.72998864 197.66385295 -11.1328125 193.83203125 C-10.39133009 189.08999259 -10.69493561 185.66248742 -12.9453125 181.39453125 C-15.57443929 178.31469701 -17.38692981 177.02215821 -21.3203125 176.01953125 C-25.94655384 175.79201118 -29.14921304 176.47297994 -33.1328125 178.83203125 Z " fill="#35B6B8" transform="translate(238.1328125,394.16796875)"/>
<path d="M0 0 C7.66902 -0.13734558 7.66902 -0.13734558 11.5 2.375 C12.34433594 2.92027344 13.18867188 3.46554687 14.05859375 4.02734375 C15.02925781 4.67832031 15.99992187 5.32929688 17 6 C18.21929177 6.79413734 19.43939232 7.58703381 20.66015625 8.37890625 C23.89301077 10.48759058 27.09258013 12.64055277 30.27587891 14.82324219 C31.79222117 15.8581855 33.32279502 16.87221231 34.85546875 17.8828125 C40.42789098 21.79168943 42.67765902 25.29709917 44 32 C44.70125 32.0825 45.4025 32.165 46.125 32.25 C50.66877043 33.43533142 53.76754775 35.20117124 56.41845703 39.0703125 C57.86251133 41.63660033 59.19683229 44.23439523 60.5 46.875 C60.9748584 47.81013428 61.4497168 48.74526855 61.93896484 49.70874023 C75.32412385 76.34406262 75.32412385 76.34406262 71.9375 87.5 C68.17473313 95.18087733 61.03596335 101.06213171 55.00024414 106.96362305 C52.13958824 109.70525154 52.13958824 109.70525154 50 113 C49.34 113 48.68 113 48 113 C47.505 114.485 47.505 114.485 47 116 C46.34 116 45.68 116 45 116 C44.74055099 116.58509338 44.48110199 117.17018677 44.21379089 117.77301025 C42.91125567 120.1628227 41.51228946 121.72236974 39.5793457 123.63183594 C38.88134354 124.32645935 38.18334137 125.02108276 37.46418762 125.73675537 C36.70901352 126.47846985 35.95383942 127.22018433 35.17578125 127.984375 C34.39615524 128.75879944 33.61652924 129.53322388 32.8132782 130.33111572 C30.31771638 132.80886979 27.81559722 135.27986043 25.3125 137.75 C22.82808268 140.20666521 20.34518253 142.66481455 17.86528015 145.1260376 C16.32318699 146.65602399 14.77842961 148.18333153 13.23054504 149.7074585 C9.14719581 153.75344518 5.24966232 157.89010466 1.51321411 162.25946045 C-0.69222503 164.79621583 -3.04422165 167.13950628 -5.4375 169.5 C-6.30246094 170.3559375 -7.16742188 171.211875 -8.05859375 172.09375 C-8.69925781 172.7228125 -9.33992188 173.351875 -10 174 C-12.33682478 172.00396217 -14.67008578 170.00408331 -17 168 C-17.59039062 167.49339844 -18.18078125 166.98679687 -18.7890625 166.46484375 C-22.47365005 163.27414773 -26.07618954 160.00863216 -29.63989258 156.68432617 C-35.89966461 150.84851185 -42.320273 145.35473197 -49 140 C-50.19028451 139.00331598 -51.37834438 138.00395803 -52.5625 137 C-55.90602767 134.25659268 -57.88182247 133.81829798 -62.125 133.4375 C-63.03507813 133.35371094 -63.94515625 133.26992188 -64.8828125 133.18359375 C-65.58148438 133.12300781 -66.28015625 133.06242188 -67 133 C-64.07871152 123.29870615 -59.27159813 114.69205697 -54.50097656 105.81689453 C-51.78337821 100.71675631 -49.1488435 95.57357545 -46.5 90.4375 C-41.46090518 80.69102232 -36.35617631 70.98140786 -31.21179199 61.29016113 C-25.33780688 50.22410974 -19.47787144 39.15120711 -13.70700073 28.03094482 C-12.78835203 26.26137649 -11.86701254 24.49320584 -10.94555664 22.72509766 C-7.07399067 15.24268466 -3.4681374 7.6773096 0 0 Z " fill="#FD6863" transform="translate(273,405)"/>
<path d="M0 0 C1.76107925 1.50799002 3.51090178 3.02921222 5.25 4.5625 C6.22453125 5.39265625 7.1990625 6.2228125 8.203125 7.078125 C15.4449609 13.36252621 21.39073069 20.27647917 27.07617188 27.984375 C28.07122719 29.32215319 29.10223307 30.63307377 30.140625 31.9375 C45.31324038 51.78952012 53.03392945 78.86106693 54.25 103.5625 C54.29125 104.35914063 54.3325 105.15578125 54.375 105.9765625 C55.29143562 142.97765051 42.46509425 178.26061998 17.23046875 205.37109375 C15.22254462 207.50984378 15.22254462 207.50984378 13.61328125 209.84765625 C13.16339844 210.41355469 12.71351563 210.97945312 12.25 211.5625 C11.59 211.5625 10.93 211.5625 10.25 211.5625 C10.25 212.2225 10.25 212.8825 10.25 213.5625 C-11.16250928 233.85932743 -38.70860704 246.41846562 -67.75 250.5625 C-69.04164063 250.75779297 -69.04164063 250.75779297 -70.359375 250.95703125 C-106.71189859 255.53159378 -141.70084395 243.95427016 -170.73046875 222.34375 C-175.82149248 218.38007567 -175.82149248 218.38007567 -177.75 216.5625 C-177.75 215.9025 -177.75 215.2425 -177.75 214.5625 C-178.3275 214.30726563 -178.905 214.05203125 -179.5 213.7890625 C-199.52252817 202.87400374 -212.74157449 172.40535765 -219.14013672 151.94018555 C-220.61476985 146.83688918 -221.27540076 141.85089158 -221.75 136.5625 C-222.74 136.2325 -223.73 135.9025 -224.75 135.5625 C-224.09 135.5625 -223.43 135.5625 -222.75 135.5625 C-222.9665625 134.01755859 -222.9665625 134.01755859 -223.1875 132.44140625 C-228.19481781 94.88206774 -220.76703432 56.78698452 -197.78637695 25.98168945 C-174.5809588 -3.80944737 -141.26527795 -23.68944865 -103.74609375 -28.93359375 C-66.63155452 -33.20994891 -29.22291166 -23.43702672 0 0 Z M-121.75 -12.4375 C-122.54148437 -12.19080566 -123.33296875 -11.94411133 -124.1484375 -11.68994141 C-155.50462315 -1.61911601 -182.60025663 20.13084822 -197.97363281 49.46801758 C-206.26213485 65.87743776 -212.12884241 84.06280642 -212.75 102.5625 C-212.78996094 103.60019531 -212.82992187 104.63789063 -212.87109375 105.70703125 C-213.58762027 142.58707265 -200.93554456 175.28543084 -175.60791016 202.03930664 C-152.14342945 226.14119915 -120.45831546 238.86710511 -86.98779297 239.53808594 C-55.87234914 239.87755183 -26.39230611 228.72537238 -2.75 208.5625 C-2.19054687 208.12421875 -1.63109375 207.6859375 -1.0546875 207.234375 C3.29361788 203.81947548 6.70961715 199.77170261 10.25 195.5625 C10.92933594 194.80582031 11.60867188 194.04914063 12.30859375 193.26953125 C36.57043098 165.37490556 43.55917335 129.92732757 41.06396484 93.87451172 C38.63379003 69.76579172 27.70674866 46.95026907 12.25 28.5625 C11.19619141 27.29792969 11.19619141 27.29792969 10.12109375 26.0078125 C-10.53389162 1.99790778 -39.5296103 -12.56310219 -70.75 -16.4375 C-87.84490569 -17.31949592 -105.29295425 -17.62073472 -121.75 -12.4375 Z " fill="#141516" transform="translate(320.75,400.4375)"/>
<path d="M0 0 C0.66064453 0.04825928 1.32128906 0.09651855 2.00195312 0.14624023 C12.04144656 0.95745497 22.02810214 2.41921301 32 3.8125 C31.31408854 13.46425412 29.31408707 22.78996709 27.375 32.25 C27.01404948 34.0300058 26.65362441 35.81011823 26.29370117 37.59033203 C25.55755078 41.22880613 24.81907843 44.86679612 24.07861328 48.50439453 C22.47341792 56.39545692 20.89199083 64.2912598 19.3125 72.1875 C19.1678833 72.90942535 19.0232666 73.63135071 18.87426758 74.37515259 C17.00226085 83.72191608 15.16796039 93.07520884 13.375 102.4375 C13.17406738 103.47310059 12.97313477 104.50870117 12.76611328 105.57568359 C11.75007124 110.8217782 10.77579242 116.0707872 9.86328125 121.3359375 C4.22090039 152.95742149 4.22090039 152.95742149 -6 161.8125 C-10.13915291 155.68633353 -14.12291522 149.48238214 -18 143.1875 C-18.55324951 142.29232666 -19.10649902 141.39715332 -19.67651367 140.47485352 C-24.5255781 132.61560302 -29.30751342 124.71603569 -34.08837891 116.81518555 C-37.80804862 110.694043 -41.64242138 104.6994066 -45.7421875 98.82421875 C-47 96.8125 -47 96.8125 -47 94.8125 C-47.66 94.4825 -48.32 94.1525 -49 93.8125 C-55.29757853 83.95832723 -61.63852506 73.94135214 -60 61.8125 C-57.85729181 53.5650949 -52.70350072 48.64060171 -45.55078125 44.33984375 C-44.00785308 43.4876306 -42.45274549 42.65684569 -40.8828125 41.85546875 C-38.84129729 40.83773553 -38.84129729 40.83773553 -37 38.8125 C-34.80484259 37.56537972 -32.60839731 36.36146525 -30.375 35.1875 C-29.45847656 34.70023437 -29.45847656 34.70023437 -28.5234375 34.203125 C-27.0173411 33.40301129 -25.50889376 32.60732573 -24 31.8125 C-24.05220703 29.96785156 -24.05220703 29.96785156 -24.10546875 28.0859375 C-24.13362045 26.45313873 -24.16091913 24.8203251 -24.1875 23.1875 C-24.21263672 22.37925781 -24.23777344 21.57101562 -24.26367188 20.73828125 C-24.33639312 14.77513933 -23.44377793 10.64341107 -19.421875 5.984375 C-18.59429687 5.28054688 -18.59429687 5.28054688 -17.75 4.5625 C-16.93789062 3.84320313 -16.93789062 3.84320313 -16.109375 3.109375 C-10.97196411 -0.04918132 -5.88535494 -0.43759643 0 0 Z " fill="#157781" transform="translate(182,417.1875)"/>
<path d="M0 0 C7.66902 -0.13734558 7.66902 -0.13734558 11.5 2.375 C12.34433594 2.92027344 13.18867188 3.46554687 14.05859375 4.02734375 C15.02925781 4.67832031 15.99992187 5.32929688 17 6 C18.21929177 6.79413734 19.43939232 7.58703381 20.66015625 8.37890625 C23.89309891 10.4869754 27.08908632 12.64414872 30.27148438 14.82763672 C31.79393276 15.86023519 33.34061664 16.85690766 34.890625 17.84765625 C39.40853474 20.9300366 41.42958649 22.97961261 42.5625 28.4375 C42.74560077 29.95429778 42.90488888 31.47515402 43 33 C41.515 33.495 41.515 33.495 40 34 C39.71125 34.5775 39.4225 35.155 39.125 35.75 C37.93854428 38.12291144 36.49289865 39.5936703 34.59106445 41.41308594 C32.62828484 43.37074551 30.81528455 45.43749439 28.98046875 47.515625 C23.97914421 53.0949006 18.71005194 58.36682201 13.375 63.625 C7.94579802 68.97664195 2.62329224 74.32410319 -2.33740234 80.11474609 C-5.23408923 83.39935933 -8.37444304 86.43523442 -11.5 89.5 C-15.86747515 93.82091697 -20.1063392 98.14700523 -24.06640625 102.84765625 C-26.91951504 106.02354099 -29.96639832 108.9974055 -33 112 C-36.76543254 115.73051734 -40.51137039 119.44270761 -44 123.4375 C-44.52464844 124.03304687 -45.04929688 124.62859375 -45.58984375 125.2421875 C-47.05785616 126.99340399 -47.05785616 126.99340399 -48.25390625 129.0703125 C-49.72733104 131.3134368 -50.68568489 132.61230622 -53 134 C-57.77165648 134.28854362 -62.29178551 133.76750346 -67 133 C-64.07871152 123.29870615 -59.27159813 114.69205697 -54.50097656 105.81689453 C-51.78337821 100.71675631 -49.1488435 95.57357545 -46.5 90.4375 C-41.46090518 80.69102232 -36.35617631 70.98140786 -31.21179199 61.29016113 C-25.33780688 50.22410974 -19.47787144 39.15120711 -13.70700073 28.03094482 C-12.78835203 26.26137649 -11.86701254 24.49320584 -10.94555664 22.72509766 C-7.07399067 15.24268466 -3.4681374 7.6773096 0 0 Z " fill="#FD9B3E" transform="translate(273,405)"/>
<path d="M0 0 C6 0.66666667 12 1.33333333 18 2 C18.33 8.6 18.66 15.2 19 22 C22.1865625 21.9690625 22.1865625 21.9690625 25.4375 21.9375 C27.62499611 21.91626217 29.81360547 21.92741054 32 22 C34.16090886 24.16090886 33.72400131 29.2005847 34 32 C34 29.03 34 26.06 34 23 C41.42857143 21.71428571 41.42857143 21.71428571 45 23 C44.34 21.02 43.68 19.04 43 17 C43.66 17 44.32 17 45 17 C44.97679687 16.02417969 44.95359375 15.04835938 44.9296875 14.04296875 C44.91164063 12.77066406 44.89359375 11.49835938 44.875 10.1875 C44.85179687 8.92292969 44.82859375 7.65835937 44.8046875 6.35546875 C45 3 45 3 47 0 C47.99 0 48.98 0 50 0 C50 0.66 50 1.32 50 2 C50.99 1.67 51.98 1.34 53 1 C56.68878804 1.16548832 60.32553439 1.61093894 64 2 C64 8.93 64 15.86 64 23 C65.711875 22.814375 67.42375 22.62875 69.1875 22.4375 C73.06325435 22.01723748 76.20732808 22.0639658 80 23 C80.18451025 34.52164009 80.18451025 34.52164009 79 40 C78.67 39.34 78.34 38.68 78 38 C73.38 38 68.76 38 64 38 C64.06889719 43.19659918 64.1568731 48.39239528 64.26245117 53.58837891 C64.29568069 55.35554083 64.32371882 57.12280839 64.34643555 58.89013672 C64.38001831 61.43242351 64.43233451 63.97374408 64.48828125 66.515625 C64.49467117 67.30430969 64.5010611 68.09299438 64.50764465 68.90557861 C64.5951483 72.17894066 64.78418122 74.60330159 66.36328125 77.50585938 C67.97015956 79.25356331 67.97015956 79.25356331 70.69921875 79.390625 C71.68535156 79.34421875 72.67148437 79.2978125 73.6875 79.25 C74.68136719 79.21390625 75.67523437 79.1778125 76.69921875 79.140625 C77.45847656 79.09421875 78.21773437 79.0478125 79 79 C80.49341703 81.98683407 80.13175178 84.74399774 80.125 88.0625 C80.12886719 89.96708984 80.12886719 89.96708984 80.1328125 91.91015625 C80 95 80 95 79 96 C70.53092843 97.2646125 61.15773398 98.37203112 53.67578125 93.48046875 C49.02807633 89.65049288 46.52259618 86.40930317 45.58935547 80.32104492 C45.51604004 79.38365479 45.44272461 78.44626465 45.3671875 77.48046875 C45.28339844 76.45888672 45.19960938 75.43730469 45.11328125 74.38476562 C45.03464844 73.32966797 44.95601562 72.27457031 44.875 71.1875 C44.78863281 70.11306641 44.70226562 69.03863281 44.61328125 67.93164062 C44.40180869 65.28823357 44.19762846 62.64447211 44 60 C44.66 60 45.32 60 46 60 C45.83628906 59.18273437 45.67257812 58.36546875 45.50390625 57.5234375 C44.93025394 53.51231824 44.88998396 49.66751879 44.9375 45.625 C44.94201172 44.88894531 44.94652344 44.15289062 44.95117188 43.39453125 C44.96284858 41.59631842 44.98077989 39.79814803 45 38 C41.7 38 38.4 38 35 38 C34.67 37.01 34.34 36.02 34 35 C33.67 36.65 33.34 38.3 33 40 C31.02 40 29.04 40 27 40 C27 39.67 27 39.34 27 39 C22.34947128 38.73067479 22.34947128 38.73067479 18 40 C18.06891743 44.91179503 18.15690253 49.82274202 18.26245117 54.73388672 C18.2956727 56.40403833 18.32371334 58.07430146 18.34643555 59.74462891 C18.38003334 62.14794363 18.43234946 64.55023899 18.48828125 66.953125 C18.49467117 67.69806213 18.5010611 68.44299927 18.50764465 69.21051025 C18.59735946 72.38510456 18.8198964 74.67256236 20.36328125 77.47851562 C21.96432042 79.25614232 21.96432042 79.25614232 24.69921875 79.390625 C25.68535156 79.34421875 26.67148437 79.2978125 27.6875 79.25 C28.68136719 79.21390625 29.67523437 79.1778125 30.69921875 79.140625 C31.45847656 79.09421875 32.21773437 79.0478125 33 79 C33.19386492 81.64551056 33.38038267 84.29117783 33.5625 86.9375 C33.64661133 88.06961914 33.64661133 88.06961914 33.73242188 89.22460938 C33.86176157 91.14745958 33.93516912 93.07389548 34 95 C30.99893054 98.00106946 22.178939 96.97929168 18 97 C12.20841125 96.36832869 8.14156061 94.6330738 4 90.5 C-2.6258417 81.62541316 -1.23262261 69.68005247 -1.0625 59.125 C-1.03471112 57.03914265 -1.01004834 54.95336003 -0.99131775 52.86740112 C-0.97367464 50.9911153 -0.94624341 49.11492892 -0.91821289 47.23876953 C-0.991265 44.345906 -1.32465033 41.80529862 -2 39 C-4.97 39 -7.94 39 -11 39 C-11 33.72 -11 28.44 -11 23 C-6.65055731 22.13011146 -5.02871475 21.96404478 -1 23 C-1.00523682 22.37432129 -1.01047363 21.74864258 -1.01586914 21.10400391 C-1.03661618 18.27767943 -1.04965286 15.45137095 -1.0625 12.625 C-1.07087891 11.64015625 -1.07925781 10.6553125 -1.08789062 9.640625 C-1.09111328 8.69960938 -1.09433594 7.75859375 -1.09765625 6.7890625 C-1.10289307 5.91975098 -1.10812988 5.05043945 -1.11352539 4.15478516 C-1 2 -1 2 0 0 Z " fill="#0F1010" transform="translate(782,464)"/>
<path d="M0 0 C1.22976563 -0.05607422 1.22976563 -0.05607422 2.484375 -0.11328125 C3.27328125 -0.12488281 4.0621875 -0.13648438 4.875 -0.1484375 C5.95394531 -0.1781665 5.95394531 -0.1781665 7.0546875 -0.20849609 C9 0.375 9 0.375 10.52685547 2.26220703 C12.5955713 6.63345775 14.14335863 11.12657266 15.6953125 15.703125 C16.04424561 16.71661514 16.39317871 17.73010529 16.75268555 18.77430725 C17.49693066 20.9376983 18.23865917 23.10195647 18.97808838 25.26699829 C20.89107861 30.86797429 22.82182012 36.4628329 24.75 42.05859375 C25.31184494 43.69171761 25.31184494 43.69171761 25.88504028 45.35783386 C28.57074558 53.15710028 31.30796637 60.93455586 34.125 68.6875 C34.63377686 70.08923462 34.63377686 70.08923462 35.15283203 71.51928711 C35.78959428 73.27331804 36.42646942 75.02730799 37.06347656 76.78125 C38.73400292 81.40785898 40.37015732 86.04642871 42 90.6875 C42.29148926 91.51354736 42.58297852 92.33959473 42.88330078 93.19067383 C43.14868652 93.94888428 43.41407227 94.70709473 43.6875 95.48828125 C44.03361328 96.47501831 44.03361328 96.47501831 44.38671875 97.48168945 C45.01762046 99.42939757 45.52632752 101.38374952 46 103.375 C42.70835171 103.40395225 39.41673601 103.4217823 36.125 103.4375 C35.18785156 103.44587891 34.25070312 103.45425781 33.28515625 103.46289062 C31.94130859 103.46772461 31.94130859 103.46772461 30.5703125 103.47265625 C29.32918701 103.48051147 29.32918701 103.48051147 28.06298828 103.48852539 C26 103.375 26 103.375 24 102.375 C23.17797852 100.2578125 23.17797852 100.2578125 22.37890625 97.5 C22.08306641 96.51515625 21.78722656 95.5303125 21.48242188 94.515625 C20.86944838 92.42292568 20.26006797 90.32917053 19.65429688 88.234375 C19.35716797 87.24953125 19.06003906 86.2646875 18.75390625 85.25 C18.48908447 84.33992187 18.2242627 83.42984375 17.95141602 82.4921875 C17.63744873 81.79351563 17.32348145 81.09484375 17 80.375 C13.4937557 79.2062519 10.3522134 79.24985733 6.70703125 79.27734375 C6.00100266 79.2787587 5.29497406 79.28017365 4.56755066 79.28163147 C2.31582374 79.28722236 0.06419679 79.29977312 -2.1875 79.3125 C-3.71549335 79.31751618 -5.24348827 79.32207888 -6.77148438 79.32617188 C-10.51439228 79.3363373 -14.25708443 79.35591431 -18 79.375 C-20.64 86.965 -23.28 94.555 -26 102.375 C-28.7225 102.54 -31.445 102.705 -34.25 102.875 C-35.10110352 102.92720703 -35.95220703 102.97941406 -36.82910156 103.03320312 C-37.5094043 103.07380859 -38.18970703 103.11441406 -38.890625 103.15625 C-39.58188477 103.19814453 -40.27314453 103.24003906 -40.98535156 103.28320312 C-42.98838965 103.37447098 -44.9948837 103.375 -47 103.375 C-44.58990021 93.6091582 -41.23378177 84.21760595 -37.875 74.75 C-36.62710443 71.21417597 -35.38199174 67.67737338 -34.13671875 64.140625 C-33.64565392 62.74766708 -33.64565392 62.74766708 -33.14466858 61.3265686 C-30.51721574 53.86634921 -27.91954906 46.39603078 -25.33203125 38.921875 C-24.94442627 37.80241486 -24.55682129 36.68295471 -24.1574707 35.52957153 C-22.61810901 31.08216427 -21.07944963 26.63451624 -19.54266357 22.18621826 C-18.47099151 19.0846863 -17.39772112 15.98371133 -16.32421875 12.8828125 C-16.00193802 11.94822205 -15.67965729 11.01363159 -15.34761047 10.05072021 C-14.90423592 8.77095306 -14.90423592 8.77095306 -14.4519043 7.46533203 C-14.1943486 6.71994171 -13.93679291 5.97455139 -13.6714325 5.20657349 C-13 3.375 -13 3.375 -12 1.375 C-7.97113745 0.03204582 -4.22053955 0.07299675 0 0 Z M-1 23.375 C-2.73877975 28.44318018 -4.46576819 33.51516548 -6.18188477 38.59106445 C-6.76751358 40.31775212 -7.35636681 42.04334963 -7.94848633 43.76782227 C-8.79835662 46.24477031 -9.63660658 48.72538956 -10.47265625 51.20703125 C-10.74030289 51.97900345 -11.00794952 52.75097565 -11.28370667 53.54634094 C-12.81944928 57.91589143 -12.81944928 57.91589143 -12 62.375 C-4.41 62.375 3.18 62.375 11 62.375 C10.25748349 57.17738446 9.30178436 52.62388631 7.71484375 47.69140625 C7.49429825 46.99103745 7.27375275 46.29066864 7.04652405 45.56907654 C6.34862922 43.35689472 5.64320588 41.14720086 4.9375 38.9375 C4.45978451 37.42789313 3.98256613 35.91812884 3.50585938 34.40820312 C2.34297654 30.72862471 1.17334084 27.05125627 0 23.375 C-0.33 23.375 -0.66 23.375 -1 23.375 Z " fill="#0F1010" transform="translate(451,456.625)"/>
<path d="M0 0 C0.33 0.66 0.66 1.32 1 2 C2.00353516 1.75636719 2.00353516 1.75636719 3.02734375 1.5078125 C6.55764475 0.90473874 9.99393324 0.85003626 13.5625 0.875 C14.29412354 0.87983398 15.02574707 0.88466797 15.77954102 0.88964844 C18.18667178 0.91495735 20.59314777 0.9556558 23 1 C23.85303711 1.01256836 24.70607422 1.02513672 25.58496094 1.03808594 C45.33991574 1.39806838 45.33991574 1.39806838 53 6 C53.72316406 6.43441406 54.44632813 6.86882812 55.19140625 7.31640625 C61.55513316 11.61748871 65.42778777 16.97663916 67.3125 24.4375 C69.00949038 33.99938808 68.42504841 43.99257382 63.5234375 52.58984375 C58.08974914 60.04565814 51.47562968 64.25420869 42.5625 66.5078125 C34.43451279 67.6307581 26.17904032 67.15628739 18 67 C18.33 78.88 18.66 90.76 19 103 C14.68232675 103.86353465 11.11659193 104.13413513 6.75 104.125 C5.50734375 104.12757813 4.2646875 104.13015625 2.984375 104.1328125 C0 104 0 104 -1 103 C-1.12542278 99.86510797 -1.18613669 96.75120163 -1.20532227 93.61499023 C-1.21522186 92.62973358 -1.22512146 91.64447693 -1.23532104 90.62936401 C-1.26703994 87.3557988 -1.29173437 84.08221905 -1.31640625 80.80859375 C-1.33696682 78.54557405 -1.35796304 76.28255827 -1.37937927 74.01954651 C-1.43469266 68.05025395 -1.48406093 62.08092621 -1.53222656 56.11157227 C-1.5823741 50.02552136 -1.6380953 43.93952184 -1.69335938 37.85351562 C-1.80105422 25.90238759 -1.90247387 13.95121504 -2 2 C-1.34 2 -0.68 2 0 2 C0 1.34 0 0.68 0 0 Z M18 18 C18 28.89 18 39.78 18 51 C31.02154074 51.74299621 31.02154074 51.74299621 43 48 C47.12558068 43.87441932 48.1550075 40.41079784 48.25 34.6875 C48.18860251 30.03357046 47.82141599 26.85593519 45 23 C36.84207492 16.29237271 28.55621273 18 18 18 Z " fill="#0F1011" transform="translate(538,456)"/>
<path d="M0 0 C0.21615967 1.1967334 0.43231934 2.3934668 0.6550293 3.62646484 C8.47096638 47.06509389 8.47096638 47.06509389 17.40478516 90.28369141 C18.37811273 94.72554646 19.31586103 99.1747637 20.25 103.625 C20.41314697 104.40093506 20.57629395 105.17687012 20.74438477 105.97631836 C21.16530828 107.98371359 21.58282268 109.99182289 22 112 C22.39251953 113.31677734 22.39251953 113.31677734 22.79296875 114.66015625 C23.09370845 118.05908228 21.77440981 119.91273441 20.0625 122.8125 C19.49660156 123.78832031 18.93070313 124.76414062 18.34765625 125.76953125 C17.68056641 126.87361328 17.68056641 126.87361328 17 128 C16.01 128 15.02 128 14 128 C12.47290039 126.11425781 12.47290039 126.11425781 10.84765625 123.453125 C10.24228027 122.47311523 9.6369043 121.49310547 9.01318359 120.48339844 C8.36945801 119.41637695 7.72573242 118.34935547 7.0625 117.25 C6.39299316 116.15977539 5.72348633 115.06955078 5.03369141 113.94628906 C0.44211704 106.44908345 -4.06902328 98.90301082 -8.5534668 91.34130859 C-12.82518148 84.18094924 -17.36206632 77.20406205 -21.98876953 70.26855469 C-22.51325684 69.47610352 -23.03774414 68.68365234 -23.578125 67.8671875 C-24.28050293 66.81700439 -24.28050293 66.81700439 -24.99707031 65.74560547 C-26 64 -26 64 -26 62 C-26.66 61.67 -27.32 61.34 -28 61 C-34.29757853 51.14582723 -40.63852506 41.12885214 -39 29 C-36.85729181 20.7525949 -31.70350072 15.82810171 -24.55078125 11.52734375 C-23.00785308 10.6751306 -21.45274549 9.84434569 -19.8828125 9.04296875 C-17.84129729 8.02523553 -17.84129729 8.02523553 -16 6 C-13.87996645 4.72685069 -11.72968974 3.50360874 -9.5625 2.3125 C-8.97662109 1.97927734 -8.39074219 1.64605469 -7.78710938 1.30273438 C-3.35355933 -1.11785311 -3.35355933 -1.11785311 0 0 Z " fill="#0E4A67" transform="translate(161,450)"/>
<path d="M0 0 C1.39992188 -0.04253906 1.39992188 -0.04253906 2.828125 -0.0859375 C8.76053332 0.84992371 12.86262139 5.21886302 17.125 9.1875 C20.28150481 12.10185034 23.437105 15.00318156 26.6875 17.8125 C30.60212013 21.21372732 34.41605025 24.721746 38.23120117 28.23339844 C42.69071536 32.33367596 47.20510116 36.36952097 51.75 40.375 C50.4191087 43.30296085 48.94292608 45.46580271 46.73828125 47.80078125 C45.84786133 48.74920898 45.84786133 48.74920898 44.93945312 49.71679688 C44.32005859 50.36712891 43.70066406 51.01746094 43.0625 51.6875 C42.46244141 52.32623047 41.86238281 52.96496094 41.24414062 53.62304688 C37.65072084 57.43261221 33.99117559 61.16847209 30.27441406 64.85766602 C28.89965282 66.22604223 27.54244914 67.61200332 26.1875 69 C24.9809375 70.175625 24.9809375 70.175625 23.75 71.375 C22.863125 72.24125 21.97625 73.1075 21.0625 74 C15.30136844 78.67078953 7.58283079 79.99222989 0.32421875 79.71875 C-8.15937757 78.58588737 -15.91825433 75.192642 -21.25 68.375 C-23.98115882 63.87116451 -26.1685841 59.11194817 -28.33496094 54.31835938 C-29.16048703 52.56510758 -30.09409242 50.86374283 -31.0390625 49.171875 C-32.47074522 46.54345237 -33.61038302 44.29896336 -34.25 41.375 C-33.50476719 38.96099432 -32.44853582 37.46668102 -30.87109375 35.5 C-28.91855729 32.94053052 -27.73253827 30.31792755 -26.4375 27.375 C-26.01855469 26.42625 -25.59960938 25.4775 -25.16796875 24.5 C-24.86503906 23.79875 -24.56210938 23.0975 -24.25 22.375 C-23.59 22.375 -22.93 22.375 -22.25 22.375 C-21.98123047 21.79379395 -21.71246094 21.21258789 -21.43554688 20.61376953 C-20.23573456 18.34806135 -18.90370759 16.53563 -17.28125 14.5546875 C-16.71019531 13.85472656 -16.13914063 13.15476562 -15.55078125 12.43359375 C-14.95652344 11.71300781 -14.36226562 10.99242187 -13.75 10.25 C-13.15574219 9.52167969 -12.56148437 8.79335938 -11.94921875 8.04296875 C-5.42387618 0.07409667 -5.42387618 0.07409667 0 0 Z M-5.25 35.375 C-8.42125519 38.70481795 -9.50743055 41.37230464 -9.75 45.875 C-9.51581613 50.36226507 -8.36061244 53.02510968 -5.25 56.375 C0.20470271 59.626842 3.76602279 59.82273642 9.75 58.375 C13.29512678 56.14002877 15.15282386 54.2068217 16.75 50.375 C17.49148241 45.63296134 17.18787689 42.20545617 14.9375 37.9375 C12.30837321 34.85766576 10.49588269 33.56512696 6.5625 32.5625 C1.93625866 32.33497993 -1.26640054 33.01594869 -5.25 35.375 Z " fill="#634DB1" transform="translate(210.25,537.625)"/>
<path d="M0 0 C8.36614357 7.63257775 8.36720495 16.69195103 8.87109375 27.45703125 C8.95431683 32.52086062 8.92274159 37.58046059 8.87109375 42.64453125 C8.78341749 51.32009733 8.87036618 59.83134034 9.87109375 68.45703125 C6.61524691 69.329938 3.75172192 69.59131869 0.37109375 69.58203125 C-1.0365625 69.58589844 -1.0365625 69.58589844 -2.47265625 69.58984375 C-4.85033255 69.47095993 -6.85573721 69.13254847 -9.12890625 68.45703125 C-9.45890625 66.80703125 -9.78890625 65.15703125 -10.12890625 63.45703125 C-10.79277344 63.87855469 -11.45664062 64.30007813 -12.140625 64.734375 C-13.02363281 65.28222656 -13.90664063 65.83007812 -14.81640625 66.39453125 C-15.68652344 66.93980469 -16.55664062 67.48507812 -17.453125 68.046875 C-24.05868952 71.52805572 -31.29101016 71.13065161 -38.31640625 69.20703125 C-44.5466999 67.12074026 -47.70663977 64.57374176 -50.94140625 58.83203125 C-53.77004537 52.73613492 -54.24549028 47.52271074 -52.46484375 41.0390625 C-49.72767748 33.93433093 -45.46610959 29.97192156 -38.609375 26.859375 C-33.41827397 24.99264211 -28.15959256 24.73696876 -22.69140625 24.39453125 C-20.71296951 24.26635799 -18.73503442 24.13009318 -16.7578125 23.984375 C-15.8922876 23.93015381 -15.0267627 23.87593262 -14.13500977 23.82006836 C-13.47299561 23.70026611 -12.81098145 23.58046387 -12.12890625 23.45703125 C-10.70848804 20.61619484 -10.81438353 18.60225847 -11.12890625 15.45703125 C-12.99600535 13.15427569 -14.48538366 11.77879254 -17.12890625 10.45703125 C-21.56652373 10.20584535 -25.31330047 10.01928311 -29.12890625 12.45703125 C-30.44638818 14.74807413 -31.24439908 16.94316878 -32.12890625 19.45703125 C-33.11890625 19.45703125 -34.10890625 19.45703125 -35.12890625 19.45703125 C-35.12890625 20.11703125 -35.12890625 20.77703125 -35.12890625 21.45703125 C-40.40890625 20.79703125 -45.68890625 20.13703125 -51.12890625 19.45703125 C-49.51353859 12.25000629 -47.48155644 5.80968144 -42.12890625 0.45703125 C-29.44947427 -7.1721185 -12.57428734 -9.11347431 0 0 Z M-32.12890625 41.45703125 C-34.4563997 44.94827142 -34.63189941 46.34925376 -34.12890625 50.45703125 C-32.26180715 52.75978681 -30.77242884 54.13526996 -28.12890625 55.45703125 C-21.24808082 55.91575295 -17.11602942 55.0511119 -11.75390625 50.39453125 C-9.395533 46.13131807 -9.79556878 42.22560898 -10.12890625 37.45703125 C-21.76388112 36.8525577 -21.76388112 36.8525577 -32.12890625 41.45703125 Z " fill="#0F1010" transform="translate(659.12890625,490.54296875)"/>
<path d="M0 0 C7.94645209 6.723921 12.41265942 15.55883162 13.3515625 25.85546875 C13.44666805 27.29922378 13.53770322 28.74325178 13.625 30.1875 C13.6765625 30.92419922 13.728125 31.66089844 13.78125 32.41992188 C13.89747076 34.27774492 13.95374084 36.13912015 14 38 C13 39 13 39 11.17137146 39.12025452 C10.37417191 39.11803391 9.57697235 39.11581329 8.75561523 39.11352539 C7.85475693 39.11344986 6.95389862 39.11337433 6.02574158 39.11329651 C5.04658279 39.10813522 4.06742401 39.10297394 3.05859375 39.09765625 C2.06118668 39.0962413 1.0637796 39.09482635 0.03614807 39.09336853 C-3.16343124 39.08775114 -6.36294169 39.07519571 -9.5625 39.0625 C-11.72591045 39.05748724 -13.88932199 39.05292395 -16.05273438 39.04882812 C-21.36851325 39.03777607 -26.68425171 39.02102104 -32 39 C-31.71303437 40.43897613 -31.41700068 41.87614572 -31.1171875 43.3125 C-30.95331543 44.11300781 -30.78944336 44.91351562 -30.62060547 45.73828125 C-29.75544286 48.8912578 -28.36584954 50.77331808 -26 53 C-24.21858253 53.86358623 -24.21858253 53.86358623 -22 54 C-20.741875 54.268125 -19.48375 54.53625 -18.1875 54.8125 C-13.29424393 55.38764017 -10.9102984 53.91355567 -7 51 C-6.56042969 50.13375 -6.12085938 49.2675 -5.66796875 48.375 C-4 46 -4 46 -1.2578125 45.4765625 C-0.22398437 45.52554688 0.80984375 45.57453125 1.875 45.625 C2.90367187 45.65851562 3.93234375 45.69203125 4.9921875 45.7265625 C7.72882059 45.97534733 10.32159485 46.39711176 13 47 C12.35098644 53.92281135 8.09180557 59.25075431 3.125 63.8125 C-4.62842936 70.22258567 -13.13709186 71.75652989 -23 71 C-33.06646296 69.35021857 -39.65518381 65.41084906 -45.8125 57.3125 C-52.81566179 46.55193406 -53.668531 33.76685779 -51.30859375 21.3671875 C-48.30203844 10.52346082 -42.74060313 2.85177322 -32.9375 -2.75 C-22.18408705 -7.3259204 -9.8576704 -6.04998656 0 0 Z M-30 15 C-32.56743428 18.6177483 -32 20.04753928 -32 25 C-23.09 25 -14.18 25 -5 25 C-6.5772053 16.27770135 -6.5772053 16.27770135 -12 11 C-18.77448491 7.61275755 -25.22252621 9.74477883 -30 15 Z " fill="#0F1010" transform="translate(916,490)"/>
<path d="M0 0 C9.39745819 6.13193217 14.37072617 13.41345646 17.0234375 24.3203125 C17.38710028 27.10839381 17.56876883 29.88812759 17.7109375 32.6953125 C17.75798828 33.41847656 17.80503906 34.14164063 17.85351562 34.88671875 C17.95703959 36.69584253 17.99598484 38.50843712 18.0234375 40.3203125 C16.46685268 41.87689732 14.94476014 41.48340649 12.77905273 41.52563477 C11.42776527 41.5555526 11.42776527 41.5555526 10.04917908 41.58607483 C9.07002029 41.60278732 8.09086151 41.61949982 7.08203125 41.63671875 C5.58592064 41.6678904 5.58592064 41.6678904 4.05958557 41.69969177 C0.86010907 41.76529887 -2.33945232 41.82412384 -5.5390625 41.8828125 C-7.70248289 41.92598712 -9.86589456 41.96960105 -12.02929688 42.01367188 C-17.34496124 42.12099153 -22.66071084 42.22273677 -27.9765625 42.3203125 C-27.53549067 43.75903332 -27.08429107 45.19465153 -26.62890625 46.62890625 C-26.37874756 47.42868896 -26.12858887 48.22847168 -25.87084961 49.05249023 C-24.57416033 52.34076397 -22.77118156 54.20730785 -19.9765625 56.3203125 C-18.6565625 56.3203125 -17.3365625 56.3203125 -15.9765625 56.3203125 C-15.9765625 56.9803125 -15.9765625 57.6403125 -15.9765625 58.3203125 C-14.20140221 57.92248371 -12.43147087 57.50127589 -10.6640625 57.0703125 C-9.67792969 56.83828125 -8.69179688 56.60625 -7.67578125 56.3671875 C-4.57946825 55.16630199 -3.62424428 54.15709796 -1.9765625 51.3203125 C-1.6465625 50.3303125 -1.3165625 49.3403125 -0.9765625 48.3203125 C4.6334375 48.3203125 10.2434375 48.3203125 16.0234375 48.3203125 C17.0234375 51.3203125 17.0234375 51.3203125 16.203125 53.625 C11.81849535 62.26298297 6.22628063 68.83833814 -3.17578125 72.078125 C-13.04272204 74.52333546 -23.16362867 73.98520105 -32.2421875 69.1015625 C-40.02116512 63.75722673 -45.1234308 55.53146711 -46.9765625 46.3203125 C-48.86054079 32.19047529 -47.78746526 20.49766646 -39.9765625 8.3203125 C-30.73383813 -2.92466507 -13.0175183 -6.92009337 0 0 Z M-24.9765625 16.3203125 C-27.64016627 20.49329174 -27.9765625 22.22648775 -27.9765625 27.3203125 C-19.0665625 27.3203125 -10.1565625 27.3203125 -0.9765625 27.3203125 C-2.5537678 18.59801385 -2.5537678 18.59801385 -7.9765625 13.3203125 C-13.89284914 10.36216918 -20.27265581 12.06439692 -24.9765625 16.3203125 Z " fill="#0E0F0F" transform="translate(750.9765625,487.6796875)"/>
<path d="M0 0 C6.27 0 12.54 0 19 0 C19 33.66 19 67.32 19 102 C9 103 9 103 0 102 C0 68.34 0 34.68 0 0 Z " fill="#0E0F0F" transform="translate(503,457)"/>
<path d="M0 0 C0.66 0.33 1.32 0.66 2 1 C7.04375319 1.30351789 12.09260374 1.308639 17 0 C18.07540729 5.23824522 18.13512346 10.26624304 18.11352539 15.58544922 C18.11367142 16.53242172 18.11381744 17.47939423 18.1139679 18.45506287 C18.11327364 21.57162806 18.10550406 24.6881328 18.09765625 27.8046875 C18.09579034 29.97087573 18.09436725 32.13706437 18.09336853 34.30325317 C18.08955698 39.99468152 18.07973832 45.68608421 18.06866455 51.37750244 C18.05842114 57.18916476 18.05386463 63.00083125 18.04882812 68.8125 C18.03811482 80.20834459 18.02105476 91.60417016 18 103 C14.05872479 103.83941542 10.41250671 104.16429594 6.375 104.1875 C5.24835937 104.20167969 4.12171875 104.21585938 2.9609375 104.23046875 C0 104 0 104 -3 102 C-2.34 102 -1.68 102 -1 102 C-1.00333092 100.12745041 -1.00333092 100.12745041 -1.00672913 98.21707153 C-1.02696741 86.47421151 -1.04197547 74.731355 -1.05181217 62.98848152 C-1.05703924 56.95080974 -1.06413373 50.91315199 -1.07543945 44.87548828 C-1.08627454 39.05297583 -1.09227816 33.23047692 -1.09487724 27.40795517 C-1.09673037 25.18231874 -1.10034883 22.95668309 -1.10573006 20.7310524 C-1.1129487 17.62293118 -1.11399059 14.51486648 -1.11352539 11.40673828 C-1.11712067 10.47885498 -1.12071594 9.55097168 -1.12442017 8.5949707 C-1.1230455 7.75080597 -1.12167084 6.90664124 -1.12025452 6.03689575 C-1.12117631 5.30130495 -1.1220981 4.56571415 -1.12304783 3.80783272 C-1 2 -1 2 0 0 Z " fill="#0F1010" transform="translate(678,456)"/>
<path d="M0 0 C9 1 9 1 18 2 C18.33 8.6 18.66 15.2 19 22 C22.1865625 21.9690625 22.1865625 21.9690625 25.4375 21.9375 C27.62499611 21.91626217 29.81360547 21.92741054 32 22 C34.16090886 24.16090886 33.72400131 29.2005847 34 32 C34 29.03 34 26.06 34 23 C34.66 23 35.32 23 36 23 C36 27.62 36 32.24 36 37 C39.3 37 42.6 37 46 37 C45.67 37.99 45.34 38.98 45 40 C45 39.34 45 38.68 45 38 C41.7 38 38.4 38 35 38 C34.67 37.01 34.34 36.02 34 35 C33.34 35.99 32.68 36.98 32 38 C32 34.04 32 30.08 32 26 C31.02417969 25.93941406 30.04835938 25.87882812 29.04296875 25.81640625 C27.77066406 25.73261719 26.49835937 25.64882813 25.1875 25.5625 C23.92292969 25.48128906 22.65835938 25.40007812 21.35546875 25.31640625 C18 25 18 25 15 24 C14.89627235 17.56888577 15.27972188 11.39246827 16 5 C11.05 5 6.1 5 1 5 C1 6.65 1 8.3 1 10 C0.34 10 -0.32 10 -1 10 C-1.125 2.25 -1.125 2.25 0 0 Z " fill="#171818" transform="translate(782,464)"/>
<path d="M0 0 C0.66 0 1.32 0 2 0 C3.4453125 2.16796875 3.4453125 2.16796875 5.125 5.1875 C5.74890625 6.28707031 6.3728125 7.38664063 7.015625 8.51953125 C7.34240234 9.09654785 7.66917969 9.67356445 8.00585938 10.26806641 C14.37680875 21.36716142 21.48167579 32.0640529 28.46484375 42.78515625 C28.86840088 43.40720947 29.27195801 44.0292627 29.68774414 44.67016602 C30.80767783 46.39624107 31.93107291 48.12006883 33.0546875 49.84375 C35 53 35 53 36.6328125 56.34375 C37.72521068 59.10868987 37.72521068 59.10868987 40 60 C40.144375 59.21625 40.28875 58.4325 40.4375 57.625 C41 55 41 55 42 53 C42.22467831 51.46331135 42.40796805 49.92031946 42.5625 48.375 C42.64628906 47.55773437 42.73007813 46.74046875 42.81640625 45.8984375 C42.87699219 45.27195312 42.93757813 44.64546875 43 44 C44.5625 45.6875 44.5625 45.6875 46 48 C45.59703811 51.77776774 44.33484004 54.55296711 42.4375 57.8125 C41.98246094 58.60269531 41.52742188 59.39289062 41.05859375 60.20703125 C40.70925781 60.79871094 40.35992187 61.39039063 40 62 C39.01 62 38.02 62 37 62 C35.47290039 60.11425781 35.47290039 60.11425781 33.84765625 57.453125 C33.24203857 56.47279297 32.6364209 55.49246094 32.01245117 54.48242188 C31.04722534 52.88237305 31.04722534 52.88237305 30.0625 51.25 C29.39516846 50.16267578 28.72783691 49.07535156 28.0402832 47.95507812 C26.01369322 44.64450605 24.00371474 41.32445904 22 38 C21.43442383 37.06220703 20.86884766 36.12441406 20.28613281 35.15820312 C18.26228182 31.79629964 16.24224805 28.43226031 14.2355957 25.06005859 C10.57867894 18.91994207 6.81157927 12.8555285 2.9440918 6.84570312 C0 2.21517797 0 2.21517797 0 0 Z " fill="#18405C" transform="translate(138,516)"/>
<path d="M0 0 C1.98 0 3.96 0 6 0 C4.68 0.33 3.36 0.66 2 1 C2 11.89 2 22.78 2 34 C8.27 34 14.54 34 21 34 C20.67 34.66 20.34 35.32 20 36 C13.4 36 6.8 36 0 36 C0 24.12 0 12.24 0 0 Z " fill="#090A0A" transform="translate(554,473)"/>
<path d="M0 0 C2 3.875 2 3.875 2 5 C-12.85 5 -27.7 5 -43 5 C-42.67 4.34 -42.34 3.68 -42 3 C-28.47 3 -14.94 3 -1 3 C-0.67 2.01 -0.34 1.02 0 0 Z " fill="#040505" transform="translate(928,523)"/>
<path d="M0 0 C8.96644835 -0.0934005 17.91892455 -0.11964254 26.875 0.375 C28.15117188 0.44460938 29.42734375 0.51421875 30.7421875 0.5859375 C33.69051447 0.96066491 35.50164385 1.45578992 38 3 C34.81714304 4.59142848 31.4129558 4.00008284 27.9296875 3.87890625 C27.13345978 3.85529526 26.33723206 3.83168427 25.51687622 3.80735779 C22.96940471 3.73067789 20.4222339 3.64667239 17.875 3.5625 C16.14975438 3.50928363 14.42449402 3.4565432 12.69921875 3.40429688 C8.46595478 3.27505693 4.23294618 3.13924581 0 3 C0 2.01 0 1.02 0 0 Z " fill="#050605" transform="translate(543,457)"/>
<path d="M0 0 C5.61 0 11.22 0 17 0 C17 6.6 17 13.2 17 20 C16.67 20 16.34 20 16 20 C16 14.06 16 8.12 16 2 C11.38 2 6.76 2 2 2 C1.67 7.94 1.34 13.88 1 20 C0.67 20 0.34 20 0 20 C0 13.4 0 6.8 0 0 Z " fill="#020303" transform="translate(828,467)"/>
<path d="M0 0 C0.58652344 0.21785156 1.17304688 0.43570312 1.77734375 0.66015625 C1.11734375 0.66015625 0.45734375 0.66015625 -0.22265625 0.66015625 C-0.22265625 1.32015625 -0.22265625 1.98015625 -0.22265625 2.66015625 C-0.88265625 2.66015625 -1.54265625 2.66015625 -2.22265625 2.66015625 C-2.22265625 3.32015625 -2.22265625 3.98015625 -2.22265625 4.66015625 C-3.00640625 5.11390625 -3.79015625 5.56765625 -4.59765625 6.03515625 C-7.57536432 7.87849934 -8.10208626 8.41257842 -9.22265625 11.66015625 C-9.45851059 14.58192277 -9.41079652 17.48141899 -9.34765625 20.41015625 C-9.33863281 21.20292969 -9.32960937 21.99570312 -9.3203125 22.8125 C-9.29682637 24.76184906 -9.26095762 26.711042 -9.22265625 28.66015625 C-12.49448086 25.38833164 -12.40577384 22.27861604 -12.47265625 17.84765625 C-12.39490357 11.97379453 -11.72485637 8.32554333 -7.60546875 3.9375 C-2.94742165 -0.45066025 -2.94742165 -0.45066025 0 0 Z " fill="#1D7078" transform="translate(170.22265625,419.33984375)"/>
<path d="M0 0 C10.89 0 21.78 0 33 0 C32.67 0.66 32.34 1.32 32 2 C28.9792807 2.16899129 25.95845177 2.33526129 22.9375 2.5 C21.66616211 2.57154297 21.66616211 2.57154297 20.36914062 2.64453125 C6.17956 3.41153561 6.17956 3.41153561 0 1 C0 0.67 0 0.34 0 0 Z " fill="#090A09" transform="translate(432,533)"/>
<path d="M0 0 C0.33 0 0.66 0 1 0 C-0.07914944 20.98759598 -0.07914944 20.98759598 -6 28 C-6.27719381 26.42120045 -6.52074143 24.83646933 -6.75 23.25 C-6.95882812 21.92742188 -6.95882812 21.92742188 -7.171875 20.578125 C-6.94041838 17.10627564 -5.4176313 16.4176313 -3 14 C-1.87591334 10.52231833 -1.87591334 10.52231833 -1.25 6.75 C-1.00765625 5.48671875 -0.7653125 4.2234375 -0.515625 2.921875 C-0.34546875 1.95765625 -0.1753125 0.9934375 0 0 Z " fill="#0C5A69" transform="translate(190,536)"/>
<path d="M0 0 C0.66 0.33 1.32 0.66 2 1 C7.04375319 1.30351789 12.09260374 1.308639 17 0 C17.33 1.65 17.66 3.3 18 5 C12.72 4.67 7.44 4.34 2 4 C0.64908472 6.70183055 0.66141942 9.11808206 0.4375 12.125 C0.35371094 13.22070312 0.26992188 14.31640625 0.18359375 15.4453125 C0.12300781 16.28835938 0.06242188 17.13140625 0 18 C-0.33 18 -0.66 18 -1 18 C-1.02690844 15.37493198 -1.04679404 12.75013827 -1.0625 10.125 C-1.07087891 9.37863281 -1.07925781 8.63226563 -1.08789062 7.86328125 C-1.11328125 2.2265625 -1.11328125 2.2265625 0 0 Z " fill="#1A1B1B" transform="translate(678,456)"/>
<path d="M0 0 C0.99 0.33 1.98 0.66 3 1 C6.85059391 10.04225675 8.81578903 19.31579183 7 29 C6.67 29 6.34 29 6 29 C5.81824219 27.82824219 5.63648438 26.65648437 5.44921875 25.44921875 C4.07892597 16.81573091 2.59881079 8.36780213 0 0 Z " fill="#301F1F" transform="translate(355,468)"/>
<path d="M0 0 C1.67739258 0.07250977 1.67739258 0.07250977 3.38867188 0.14648438 C5.13954102 0.2305957 5.13954102 0.2305957 6.92578125 0.31640625 C8.69405273 0.3947168 8.69405273 0.3947168 10.49804688 0.47460938 C13.41172219 0.60436819 16.32506203 0.73933757 19.23828125 0.87890625 C18.90828125 1.53890625 18.57828125 2.19890625 18.23828125 2.87890625 C9.32828125 2.87890625 0.41828125 2.87890625 -8.76171875 2.87890625 C-8.76171875 2.21890625 -8.76171875 1.55890625 -8.76171875 0.87890625 C-5.51373132 -0.20375623 -3.40275048 -0.15545561 0 0 Z " fill="#040505" transform="translate(891.76171875,514.12109375)"/>
<path d="M0 0 C0.66 0 1.32 0 2 0 C0.42020915 5.15900449 -1.70828477 9.94260514 -4 14.8125 C-4.35578125 15.58787109 -4.7115625 16.36324219 -5.078125 17.16210938 C-5.42359375 17.89880859 -5.7690625 18.63550781 -6.125 19.39453125 C-6.43695313 20.06331299 -6.74890625 20.73209473 -7.0703125 21.42114258 C-8 23 -8 23 -10 24 C-9.60190889 21.91303753 -9.1807572 19.8304656 -8.75 17.75 C-8.51796875 16.58984375 -8.2859375 15.4296875 -8.046875 14.234375 C-6.91205774 10.72829779 -5.68316524 9.42711766 -3 7 C-1.79950593 3.89992799 -1.79950593 3.89992799 -1 1 C-0.67 0.67 -0.34 0.34 0 0 Z " fill="#1EAAB7" transform="translate(271,405)"/>
<path d="M0 0 C4.78187826 0.68312547 6.87629944 3.77095251 10 7.1875 C12.11709113 9.10611384 13.28311509 9.41863268 16 10 C17.05771739 11.63064764 18.05273046 13.30280873 19 15 C20.29579647 16.36984198 21.61992749 17.7151049 23 19 C18.41781289 18.13767414 15.87994252 15.39994437 12.625 12.25 C11.51438128 11.19127936 10.40241 10.13397569 9.2890625 9.078125 C8.47743652 8.3056543 8.47743652 8.3056543 7.64941406 7.51757812 C6.00647777 6.00596001 4.31524089 4.583344 2.5859375 3.171875 C1.73257813 2.45515625 0.87921875 1.7384375 0 1 C0 0.67 0 0.34 0 0 Z " fill="#F66D53" transform="translate(240,558)"/>
<path d="M0 0 C0.73605469 0.15726562 1.47210938 0.31453125 2.23046875 0.4765625 C4.125 0.9375 4.125 0.9375 7 2 C7.33 2.99 7.66 3.98 8 5 C-0.25 3.35 -8.5 1.7 -17 0 C-17 -0.33 -17 -0.66 -17 -1 C-11.06547304 -2.60392621 -5.85689599 -1.30529954 0 0 Z " fill="#222C2A" transform="translate(267,385)"/>
<path d="M0 0 C1.89575251 -0.02721176 3.79161979 -0.04649136 5.6875 -0.0625 C6.74324219 -0.07410156 7.79898438 -0.08570313 8.88671875 -0.09765625 C11.72410262 -0.00865425 14.2438919 0.35060162 17 1 C16.39301257 5.12751449 14.96189209 8.3321148 13 12 C11.9673198 9.21176345 11.95490707 8.1322726 12.9375 5.25 C13.288125 4.5075 13.63875 3.765 14 3 C11.03 3 8.06 3 5 3 C5 2.67 5 2.34 5 2 C3.35 1.67 1.7 1.34 0 1 C0 0.67 0 0.34 0 0 Z " fill="#181919" transform="translate(912,536)"/>
<path d="M0 0 C-0.99 2.97 -1.98 5.94 -3 9 C-3.66 8.67 -4.32 8.34 -5 8 C-4.67 6.02 -4.34 4.04 -4 2 C-8.29 2 -12.58 2 -17 2 C-17 1.34 -17 0.68 -17 0 C-14.54203147 -0.19436491 -12.08390706 -0.3807742 -9.625 -0.5625 C-8.92632813 -0.61857422 -8.22765625 -0.67464844 -7.5078125 -0.73242188 C-2.2265625 -1.11328125 -2.2265625 -1.11328125 0 0 Z " fill="#080909" transform="translate(768,537)"/>
<path d="M0 0 C0.66 0.33 1.32 0.66 2 1 C2.15392039 9.38011029 1.68271293 17.64895793 1 26 C0.67 26 0.34 26 0 26 C-1.30512614 17.19039858 -1.30512614 8.80960142 0 0 Z " fill="#1E1B1B" transform="translate(373,503)"/>
<path d="M0 0 C6.73742646 -0.11044961 13.29980211 0.29867087 20 1 C19.67 1.66 19.34 2.32 19 3 C16.20826945 3.02690104 13.41679652 3.04679053 10.625 3.0625 C9.43390625 3.07506836 9.43390625 3.07506836 8.21875 3.08789062 C2.2265625 3.11328125 2.2265625 3.11328125 0 2 C0 1.34 0 0.68 0 0 Z " fill="#1F1E20" transform="translate(224,649)"/>
<path d="M0 0 C3.40312738 1.05875074 6.01353231 2.00902154 9 4 C9.69658363 5.65438613 10.36096883 7.32254318 11 9 C11.95824253 10.36365283 12.94721175 11.70794169 14 13 C13.01 13 12.02 13 11 13 C9.77494832 11.57629129 8.55717595 10.14442966 7.40625 8.66015625 C5.95782282 6.95020749 4.44314924 5.63712853 2.6875 4.25 C1.800625 3.5075 0.91375 2.765 0 2 C0 1.34 0 0.68 0 0 Z " fill="#251C17" transform="translate(319,414)"/>
<path d="M0 0 C1.5625 1.6875 1.5625 1.6875 3 4 C2.59703811 7.77776774 1.33484004 10.55296711 -0.5625 13.8125 C-1.01753906 14.60269531 -1.47257813 15.39289062 -1.94140625 16.20703125 C-2.29074219 16.79871094 -2.64007813 17.39039063 -3 18 C-3.99 18 -4.98 18 -6 18 C-5.505 16.515 -5.505 16.515 -5 15 C-4.34 15.33 -3.68 15.66 -3 16 C-2.7834375 14.824375 -2.7834375 14.824375 -2.5625 13.625 C-2 11 -2 11 -1 9 C-0.77532169 7.46331135 -0.59203195 5.92031946 -0.4375 4.375 C-0.35371094 3.55773437 -0.26992187 2.74046875 -0.18359375 1.8984375 C-0.12300781 1.27195312 -0.06242188 0.64546875 0 0 Z " fill="#09314E" transform="translate(181,560)"/>
<path d="M0 0 C0 3 0 3 -1.16162109 4.48632812 C-1.69352051 4.99615234 -2.22541992 5.50597656 -2.7734375 6.03125 C-3.3509375 6.59457031 -3.9284375 7.15789063 -4.5234375 7.73828125 C-5.43996094 8.61033203 -5.43996094 8.61033203 -6.375 9.5 C-7.57249163 10.653993 -8.76788737 11.81016577 -9.9609375 12.96875 C-10.49509277 13.47857422 -11.02924805 13.98839844 -11.57958984 14.51367188 C-13.22510712 16.14934032 -13.22510712 16.14934032 -15 19 C-15.66 19 -16.32 19 -17 19 C-15.60652624 15.84795019 -13.97514921 13.73828227 -11.5234375 11.328125 C-10.51796875 10.33232422 -10.51796875 10.33232422 -9.4921875 9.31640625 C-8.79351562 8.63449219 -8.09484375 7.95257812 -7.375 7.25 C-6.66859375 6.55261719 -5.9621875 5.85523438 -5.234375 5.13671875 C-3.49401297 3.41987512 -1.74915019 1.70788168 0 0 Z " fill="#FB576B" transform="translate(249,507)"/>
<path d="M0 0 C1.85772162 0.08984301 3.71247985 0.24611861 5.5625 0.4375 C7.08037109 0.59025391 7.08037109 0.59025391 8.62890625 0.74609375 C9.80259766 0.87177734 9.80259766 0.87177734 11 1 C10.67 1.66 10.34 2.32 10 3 C8.88625 2.979375 7.7725 2.95875 6.625 2.9375 C3.16784079 2.73619282 3.16784079 2.73619282 1 4 C0.53045739 7.04581269 0.53045739 7.04581269 0.375 10.5625 C0.30023437 11.76003906 0.22546875 12.95757812 0.1484375 14.19140625 C0.09945312 15.11824219 0.05046875 16.04507812 0 17 C-0.33 17 -0.66 17 -1 17 C-1.02684679 14.35409986 -1.04676357 11.70846904 -1.0625 9.0625 C-1.07087891 8.30775391 -1.07925781 7.55300781 -1.08789062 6.77539062 C-1.09652441 4.85005687 -1.05224333 2.92464419 -1 1 C-0.67 0.67 -0.34 0.34 0 0 Z " fill="#151616" transform="translate(772,486)"/>
<path d="M0 0 C2 2 2 2 2.04345703 4.15478516 C1.94919434 5.02409668 1.85493164 5.8934082 1.7578125 6.7890625 C1.66113281 7.73007812 1.56445312 8.67109375 1.46484375 9.640625 C1.35269531 10.62546875 1.24054688 11.6103125 1.125 12.625 C1.02058594 13.61757813 0.91617188 14.61015625 0.80859375 15.6328125 C0.5487258 18.08974586 0.27880162 20.54515492 0 23 C-0.33 23 -0.66 23 -1 23 C-2.1736381 14.94313304 -1.67968453 7.95420855 0 0 Z " fill="#181F22" transform="translate(109,480)"/>
<path d="M0 0 C0.33 0 0.66 0 1 0 C1.22084624 6.09781001 1.01167675 11.21642935 -1 17 C-1.66 17 -2.32 17 -3 17 C-2.48517081 11.147205 -1.54642808 5.6702363 0 0 Z " fill="#1A1E1F" transform="translate(101,471)"/>
<path d="M0 0 C8.00945568 -0.30372936 14.69065285 -0.50848663 22 3 C22 3.33 22 3.66 22 4 C20.52031676 3.85950482 19.04125484 3.71245174 17.5625 3.5625 C16.73878906 3.48128906 15.91507813 3.40007812 15.06640625 3.31640625 C13 3 13 3 12 2 C9.98405418 1.76572222 7.961526 1.58663876 5.9375 1.4375 C4.83277344 1.35371094 3.72804688 1.26992188 2.58984375 1.18359375 C1.73519531 1.12300781 0.88054688 1.06242187 0 1 C0 0.67 0 0.34 0 0 Z " fill="#191A1A" transform="translate(730,485)"/>
<path d="M0 0 C0.99 0 1.98 0 3 0 C1.59155282 3.21524305 -0.10344786 5.32183868 -2.625 7.75 C-3.57246094 8.67039062 -3.57246094 8.67039062 -4.5390625 9.609375 C-5.02117187 10.06828125 -5.50328125 10.5271875 -6 11 C-6.33 10.01 -6.66 9.02 -7 8 C-6.34 8 -5.68 8 -5 8 C-4.34 6.35 -3.68 4.7 -3 3 C-2.34 3 -1.68 3 -1 3 C-0.67 2.01 -0.34 1.02 0 0 Z " fill="#EF6662" transform="translate(271,566)"/>
<path d="M0 0 C0.433125 0.66 0.86625 1.32 1.3125 2 C5.51781411 5.12953609 9.92749266 4.31484528 15 4 C15.33 4.66 15.66 5.32 16 6 C13.0923543 6.82791734 10.45909481 7.16193659 7.4375 7.1875 C6.29087891 7.20876953 6.29087891 7.20876953 5.12109375 7.23046875 C3 7 3 7 0 5 C-0.1875 2.375 -0.1875 2.375 0 0 Z " fill="#161818" transform="translate(846,539)"/>
<path d="M0 0 C1.98440482 0.75724648 3.96243005 1.53122962 5.9375 2.3125 C7.03964844 2.74175781 8.14179688 3.17101562 9.27734375 3.61328125 C12 5 12 5 13 8 C7.80355921 6.40109514 2.93387858 4.25861997 -2 2 C-1.34 1.34 -0.68 0.68 0 0 Z " fill="#22221D" transform="translate(282,390)"/>
<path d="M0 0 C0.33 0 0.66 0 1 0 C1.33 5.94 1.66 11.88 2 18 C1.34 18.33 0.68 18.66 0 19 C-0.95494281 12.42150508 -0.8931507 6.58183362 0 0 Z " fill="#1D2528" transform="translate(108,517)"/>
<path d="M0 0 C1.62490954 -0.02698189 3.24994633 -0.04638757 4.875 -0.0625 C5.77992188 -0.07410156 6.68484375 -0.08570313 7.6171875 -0.09765625 C10 0 10 0 12 1 C12 1.66 12 2.32 12 3 C7.83861737 3.08159574 4.0527516 2.98248524 0 2 C0 1.34 0 0.68 0 0 Z " fill="#181918" transform="translate(795,558)"/>
<path d="M0 0 C0.66 0 1.32 0 2 0 C1.67 1.98 1.34 3.96 1 6 C0.34 6 -0.32 6 -1 6 C-1 6.99 -1 7.98 -1 9 C0.98 9 2.96 9 5 9 C5 9.33 5 9.66 5 10 C0.545 10.495 0.545 10.495 -4 11 C-2.68 7.37 -1.36 3.74 0 0 Z " fill="#F1A72B" transform="translate(210,527)"/>
<path d="M0 0 C3.63 0 7.26 0 11 0 C11 0.33 11 0.66 11 1 C8.03 1 5.06 1 2 1 C2 1.99 2 2.98 2 4 C1.34 4 0.68 4 0 4 C-0.66 5.32 -1.32 6.64 -2 8 C-2.66 7.67 -3.32 7.34 -4 7 C-2.68 4.69 -1.36 2.38 0 0 Z " fill="#070808" transform="translate(911,537)"/>
<path d="M0 0 C3.21043882 1.38188453 5.04936365 2.92421903 7.25 5.625 C8.03117188 6.57246094 8.03117188 6.57246094 8.828125 7.5390625 C9.40820312 8.26222656 9.40820312 8.26222656 10 9 C7 9 7 9 5.17578125 7.5390625 C4.56089844 6.90742187 3.94601563 6.27578125 3.3125 5.625 C2.68988281 4.99851562 2.06726563 4.37203125 1.42578125 3.7265625 C0 2 0 2 0 0 Z " fill="#181B1E" transform="translate(140,598)"/>
<path d="M0 0 C1.65 0 3.3 0 5 0 C5 3 5 3 3.6875 4.38671875 C2.125 5.59114583 0.5625 6.79557292 -1 8 C-0.67 5.36 -0.34 2.72 0 0 Z " fill="#2EC1B5" transform="translate(200,536)"/>
<path d="M0 0 C0.33 0 0.66 0 1 0 C1 4.95 1 9.9 1 15 C0.01 15.495 0.01 15.495 -1 16 C-1.33 13.03 -1.66 10.06 -2 7 C-1.34 7 -0.68 7 0 7 C0 4.69 0 2.38 0 0 Z " fill="#080909" transform="translate(679,528)"/>
<path d="M0 0 C0.33 0.66 0.66 1.32 1 2 C2.19625 1.814375 3.3925 1.62875 4.625 1.4375 C8.28283707 0.9688803 11.37862166 1.18518987 15 2 C15 1.34 15 0.68 15 0 C15.66 0 16.32 0 17 0 C17 1.32 17 2.64 17 4 C11.39 3.67 5.78 3.34 0 3 C0 2.01 0 1.02 0 0 Z " fill="#060707" transform="translate(610,506)"/>
<path d="M0 0 C0.33 0 0.66 0 1 0 C1 6.6 1 13.2 1 20 C-2 16 -2 16 -2 14 C-1.34 14 -0.68 14 0 14 C0 9.38 0 4.76 0 0 Z " fill="#343634" transform="translate(827,467)"/>
<path d="M0 0 C0 0.33 0 0.66 0 1 C-1.41538717 1.33872513 -2.83237963 1.67074624 -4.25 2 C-5.03890625 2.185625 -5.8278125 2.37125 -6.640625 2.5625 C-9 3 -9 3 -13 3 C-13 2.34 -13 1.68 -13 1 C-8.23947038 -0.97387813 -5.03511899 -1.0070238 0 0 Z " fill="#1A2524" transform="translate(212,385)"/>
<path d="M0 0 C0.33 0 0.66 0 1 0 C1.10867302 1.58179615 1.18589827 3.16577153 1.25 4.75 C1.29640625 5.63171875 1.3428125 6.5134375 1.390625 7.421875 C0.88630587 10.75038125 -0.47586629 11.87336766 -3 14 C-2.69147815 12.041036 -2.3780582 10.08284287 -2.0625 8.125 C-1.88847656 7.03445313 -1.71445313 5.94390625 -1.53515625 4.8203125 C-1 2 -1 2 0 0 Z " fill="#35C3BF" transform="translate(190,546)"/>
<path d="M0 0 C3.8063457 0.67170806 7.35206816 1.72746564 11 3 C11 3.66 11 4.32 11 5 C9.54096742 4.69078116 8.08279278 4.37751201 6.625 4.0625 C5.81289062 3.88847656 5.00078125 3.71445312 4.1640625 3.53515625 C2 3 2 3 0 2 C0 1.34 0 0.68 0 0 Z " fill="#1B1B1E" transform="translate(180,639)"/>
<path d="M0 0 C0.33 0 0.66 0 1 0 C2.29925791 4.33085971 3.343621 8.51474352 4 13 C1.13546142 9.58983503 -0.34703566 6.09305456 -2 2 C-1.34 1.34 -0.68 0.68 0 0 Z " fill="#534D99" transform="translate(178,577)"/>
<path d="M0 0 C4.29 0 8.58 0 13 0 C7.59364886 2.70317557 5.99319838 2.9988664 0 2 C0 1.34 0 0.68 0 0 Z " fill="#080909" transform="translate(505,557)"/>
<path d="M0 0 C-0.33 0.66 -0.66 1.32 -1 2 C-2.98 2 -4.96 2 -7 2 C-7 2.66 -7 3.32 -7 4 C-7.66 4 -8.32 4 -9 4 C-9 2.68 -9 1.36 -9 0 C-5.52176885 -1.15941038 -3.54104422 -0.70820884 0 0 Z " fill="#090809" transform="translate(448,458)"/>
<path d="M0 0 C0.495 0.639375 0.99 1.27875 1.5 1.9375 C4.98806387 4.81515269 7.53461041 4.70230736 12 5 C12 5.33 12 5.66 12 6 C8.37 6 4.74 6 1 6 C0.67 4.02 0.34 2.04 0 0 Z " fill="#151717" transform="translate(800,539)"/>
<path d="M0 0 C-3.42346555 3.14958831 -6.44262737 3.56179109 -11 4 C-4.14893617 -1.38297872 -4.14893617 -1.38297872 0 0 Z " fill="#171E1E" transform="translate(180,384)"/>
<path d="M0 0 C2.31 1.98 4.62 3.96 7 6 C6.34 6.66 5.68 7.32 5 8 C3.02 5.69 1.04 3.38 -1 1 C-0.67 0.67 -0.34 0.34 0 0 Z " fill="#1D2022" transform="translate(136,607)"/>
<path d="M0 0 C3 1 3 1 5 4 C5.07905064 6.33199388 5.08798769 8.66832622 5 11 C4.731875 10.443125 4.46375 9.88625 4.1875 9.3125 C2.99300335 6.91066602 2.99300335 6.91066602 1.375 4.375 C0 2 0 2 0 0 Z " fill="#070808" transform="translate(646,501)"/>
<path d="M0 0 C0 0.66 0 1.32 0 2 C-2.40545638 3.20272819 -3.94996953 3.10071472 -6.625 3.0625 C-7.85089844 3.04896484 -7.85089844 3.04896484 -9.1015625 3.03515625 C-10.04128906 3.01775391 -10.04128906 3.01775391 -11 3 C-7.20844146 1.05276952 -4.29965574 0 0 0 Z " fill="#1F1C21" transform="translate(274,634)"/>
<path d="M0 0 C0.66 0.99 1.32 1.98 2 3 C0.625 6.6875 0.625 6.6875 -1 10 C-1.66 10 -2.32 10 -3 10 C-2.01 6.7 -1.02 3.4 0 0 Z " fill="#20181A" transform="translate(355,553)"/>
<path d="M0 0 C2 1 2 1 3.125 4.0625 C3.41375 5.031875 3.7025 6.00125 4 7 C3.34 7.66 2.68 8.32 2 9 C0.4375 6.1875 0.4375 6.1875 -1 3 C-0.67 2.01 -0.34 1.02 0 0 Z " fill="#281A1A" transform="translate(349,450)"/>
<path d="M0 0 C1.2065625 0.0309375 1.2065625 0.0309375 2.4375 0.0625 C2.1075 3.0325 1.7775 6.0025 1.4375 9.0625 C1.1075 9.0625 0.7775 9.0625 0.4375 9.0625 C0.334375 8.11375 0.23125 7.165 0.125 6.1875 C-0.24789295 2.77142499 -0.24789295 2.77142499 -3.5625 1.0625 C-2.5625 0.0625 -2.5625 0.0625 0 0 Z " fill="#050605" transform="translate(859.5625,486.9375)"/>
<path d="M0 0 C0.33 0.99 0.66 1.98 1 3 C-1.61941217 4.74627478 -3.03824877 5.38722388 -6 6 C-4.95125002 3.37812506 -4.35068687 2.20628639 -1.875 0.75 C-1.25625 0.5025 -0.6375 0.255 0 0 Z " fill="#12475C" transform="translate(158,449)"/>
<path d="M0 0 C0.66 0.66 1.32 1.32 2 2 C1.625 4.625 1.625 4.625 1 7 C0.01 7.33 -0.98 7.66 -2 8 C-1.34 5.36 -0.68 2.72 0 0 Z " fill="#151616" transform="translate(406,552)"/>
<path d="M0 0 C2.3773161 2.3773161 2.67028521 3.70285207 3 7 C2.34 7.66 1.68 8.32 1 9 C0.63877119 7.68942607 0.28619689 6.37646376 -0.0625 5.0625 C-0.35833984 3.96615234 -0.35833984 3.96615234 -0.66015625 2.84765625 C-0.77230469 2.23792969 -0.88445312 1.62820313 -1 1 C-0.67 0.67 -0.34 0.34 0 0 Z " fill="#281C1B" transform="translate(353,458)"/>
<path d="M0 0 C3.79588866 0.54226981 5.47211993 2.20127563 8 5 C4.75791433 4.64950425 3.38472296 4.43778819 1.1875 1.9375 C0.795625 1.298125 0.40375 0.65875 0 0 Z " fill="#1E1B16" transform="translate(316,399)"/>
<path d="M0 0 C1.98 0 3.96 0 6 0 C6 0.33 6 0.66 6 1 C4.02 1 2.04 1 0 1 C0 0.67 0 0.34 0 0 Z " fill="#272929" transform="translate(820,503)"/>
<path d="M0 0 C1 4 1 4 1 4 Z " fill="#242426" transform="translate(847,529)"/>
<path d="M0 0 C1 4 1 4 1 4 Z " fill="#232425" transform="translate(847,513)"/>
<path d="M0 0 C1 4 1 4 1 4 Z " fill="#2B2D2C" transform="translate(557,476)"/>
<path d="M0 0 C3 1 3 1 3 1 Z " fill="#2A2B2B" transform="translate(557,524)"/>
<path d="" fill="#222626" transform="translate(0,0)"/>
<path d="M0 0 C0.99 0.495 0.99 0.495 2 1 C1.01 1.495 1.01 1.495 0 2 C0 1.34 0 0.68 0 0 Z " fill="#272827" transform="translate(885,512)"/>
<path d="M0 0 C0.66 0 1.32 0 2 0 C1.67 0.66 1.34 1.32 1 2 C0.67 1.34 0.34 0.68 0 0 Z " fill="#282827" transform="translate(625,511)"/>
<path d="" fill="#222626" transform="translate(0,0)"/>
<path d="M0 0 C3 1 3 1 3 1 Z " fill="#222525" transform="translate(856,503)"/>
<path d="M0 0 C3 1 3 1 3 1 Z " fill="#232526" transform="translate(852,503)"/>
<path d="M0 0 C3 1 3 1 3 1 Z " fill="#242727" transform="translate(847,503)"/>
<path d="M0 0 C3 1 3 1 3 1 Z " fill="#2B2C2C" transform="translate(573,476)"/>
<path d="" fill="#2E2E2D" transform="translate(0,0)"/>
<path d="M0 0 C0.33 0.66 0.66 1.32 1 2 C0.34 1.67 -0.32 1.34 -1 1 C-0.67 0.67 -0.34 0.34 0 0 Z " fill="#A15C4C" transform="translate(337,437)"/>
<path d="M0 0 C2 1 2 1 2 1 Z " fill="#44484C" transform="translate(146,621)"/>
<path d="M0 0 C2 1 2 1 2 1 Z " fill="#51444B" transform="translate(304,616)"/>
<path d="" fill="#444A50" transform="translate(0,0)"/>
<path d="" fill="#2C2D2D" transform="translate(0,0)"/>
<path d="" fill="#444B50" transform="translate(0,0)"/>
<path d="M0 0 C2 1 2 1 2 1 Z " fill="#474C50" transform="translate(96,544)"/>
<path d="" fill="#464C50" transform="translate(0,0)"/>
<path d="" fill="#292929" transform="translate(0,0)"/>
<path d="" fill="#232525" transform="translate(0,0)"/>
<path d="M0 0 C2 1 2 1 2 1 Z " fill="#272829" transform="translate(886,530)"/>
<path d="" fill="#235A75" transform="translate(0,0)"/>
<path d="" fill="#292928" transform="translate(0,0)"/>
<path d="" fill="#272929" transform="translate(0,0)"/>
<path d="" fill="#272727" transform="translate(0,0)"/>
<path d="M0 0 C2 1 2 1 2 1 Z " fill="#282927" transform="translate(774,503)"/>
<path d="M0 0 C2 1 2 1 2 1 Z " fill="#2A2C2C" transform="translate(644,503)"/>
<path d="M0 0 C2 1 2 1 2 1 Z " fill="#2B2C2C" transform="translate(641,502)"/>
<path d="M0 0 C2 1 2 1 2 1 Z " fill="#282828" transform="translate(738,501)"/>
<path d="" fill="#282829" transform="translate(0,0)"/>
<path d="" fill="#272A2B" transform="translate(0,0)"/>
<path d="" fill="#444C4F" transform="translate(0,0)"/>
<path d="M0 0 C2 1 2 1 2 1 Z " fill="#2A2B2C" transform="translate(577,477)"/>
<path d="M0 0 C2 1 2 1 2 1 Z " fill="#343432" transform="translate(824,469)"/>
<path d="" fill="#98534F" transform="translate(0,0)"/>
<path d="" fill="#9C554D" transform="translate(0,0)"/>
<path d="M0 0 C2 1 2 1 2 1 Z " fill="#363532" transform="translate(797,464)"/>
<path d="M0 0 C2 1 2 1 2 1 Z " fill="#343433" transform="translate(577,456)"/>
<path d="" fill="#9B564B" transform="translate(0,0)"/>
<path d="" fill="#A26149" transform="translate(0,0)"/>
<path d="" fill="#A46C4D" transform="translate(0,0)"/>
<path d="M0 0 C2 1 2 1 2 1 Z " fill="#537E75" transform="translate(266,389)"/>
<path d="M0 0 C2 1 2 1 2 1 Z " fill="#435150" transform="translate(208,371)"/>
<path d="" fill="#676867" transform="translate(0,0)"/>
<path d="" fill="#4B4B4F" transform="translate(0,0)"/>
<path d="" fill="#45454C" transform="translate(0,0)"/>
<path d="" fill="#494A4E" transform="translate(0,0)"/>
<path d="" fill="#47484C" transform="translate(0,0)"/>
<path d="" fill="#464145" transform="translate(0,0)"/>
<path d="" fill="#4F495A" transform="translate(0,0)"/>
<path d="" fill="#47484D" transform="translate(0,0)"/>
<path d="" fill="#4F4651" transform="translate(0,0)"/>
<path d="" fill="#554758" transform="translate(0,0)"/>
<path d="" fill="#48495F" transform="translate(0,0)"/>
<path d="" fill="#574A5D" transform="translate(0,0)"/>
<path d="" fill="#4B4646" transform="translate(0,0)"/>
<path d="" fill="#44484C" transform="translate(0,0)"/>
<path d="" fill="#484B5A" transform="translate(0,0)"/>
<path d="" fill="#454A4D" transform="translate(0,0)"/>
<path d="" fill="#44474B" transform="translate(0,0)"/>
<path d="" fill="#594857" transform="translate(0,0)"/>
<path d="" fill="#574751" transform="translate(0,0)"/>
<path d="" fill="#5B4754" transform="translate(0,0)"/>
<path d="" fill="#424455" transform="translate(0,0)"/>
<path d="" fill="#4F4648" transform="translate(0,0)"/>
<path d="" fill="#46474B" transform="translate(0,0)"/>
<path d="" fill="#615596" transform="translate(0,0)"/>
<path d="" fill="#44474A" transform="translate(0,0)"/>
<path d="" fill="#44474A" transform="translate(0,0)"/>
<path d="" fill="#4D4547" transform="translate(0,0)"/>
<path d="" fill="#45494B" transform="translate(0,0)"/>
<path d="" fill="#454B4E" transform="translate(0,0)"/>
<path d="" fill="#604446" transform="translate(0,0)"/>
<path d="" fill="#4A568F" transform="translate(0,0)"/>
<path d="" fill="#3E5488" transform="translate(0,0)"/>
<path d="" fill="#494D51" transform="translate(0,0)"/>
<path d="" fill="#474045" transform="translate(0,0)"/>
<path d="" fill="#61494A" transform="translate(0,0)"/>
<path d="" fill="#3D5585" transform="translate(0,0)"/>
<path d="" fill="#464C51" transform="translate(0,0)"/>
<path d="" fill="#464B51" transform="translate(0,0)"/>
<path d="" fill="#68494B" transform="translate(0,0)"/>
<path d="" fill="#3E5783" transform="translate(0,0)"/>
<path d="" fill="#45494E" transform="translate(0,0)"/>
<path d="" fill="#385482" transform="translate(0,0)"/>
<path d="" fill="#31577A" transform="translate(0,0)"/>
<path d="" fill="#384650" transform="translate(0,0)"/>
<path d="" fill="#333334" transform="translate(0,0)"/>
<path d="" fill="#313232" transform="translate(0,0)"/>
<path d="" fill="#2F2E30" transform="translate(0,0)"/>
<path d="" fill="#2E3132" transform="translate(0,0)"/>
<path d="" fill="#2E322F" transform="translate(0,0)"/>
<path d="" fill="#2B2C2C" transform="translate(0,0)"/>
<path d="" fill="#323334" transform="translate(0,0)"/>
<path d="" fill="#2D2E2D" transform="translate(0,0)"/>
<path d="" fill="#333333" transform="translate(0,0)"/>
<path d="" fill="#2C2B2C" transform="translate(0,0)"/>
<path d="" fill="#292B2C" transform="translate(0,0)"/>
<path d="" fill="#444C4F" transform="translate(0,0)"/>
<path d="" fill="#2B2C2A" transform="translate(0,0)"/>
<path d="" fill="#2B2D2E" transform="translate(0,0)"/>
<path d="" fill="#255876" transform="translate(0,0)"/>
<path d="" fill="#282A29" transform="translate(0,0)"/>
<path d="" fill="#2A2A2A" transform="translate(0,0)"/>
<path d="" fill="#2C2B2C" transform="translate(0,0)"/>
<path d="" fill="#433E41" transform="translate(0,0)"/>
<path d="" fill="#2B2B2C" transform="translate(0,0)"/>
<path d="" fill="#2A2A28" transform="translate(0,0)"/>
<path d="" fill="#2C2B2B" transform="translate(0,0)"/>
<path d="" fill="#282826" transform="translate(0,0)"/>
<path d="" fill="#282A2A" transform="translate(0,0)"/>
<path d="" fill="#484C4F" transform="translate(0,0)"/>
<path d="" fill="#2B2A2A" transform="translate(0,0)"/>
<path d="" fill="#252726" transform="translate(0,0)"/>
<path d="" fill="#272928" transform="translate(0,0)"/>
<path d="" fill="#28272A" transform="translate(0,0)"/>
<path d="" fill="#282927" transform="translate(0,0)"/>
<path d="" fill="#292929" transform="translate(0,0)"/>
<path d="" fill="#2A2928" transform="translate(0,0)"/>
<path d="" fill="#282A2A" transform="translate(0,0)"/>
<path d="" fill="#282828" transform="translate(0,0)"/>
<path d="" fill="#313335" transform="translate(0,0)"/>
<path d="" fill="#245674" transform="translate(0,0)"/>
<path d="" fill="#494B50" transform="translate(0,0)"/>
<path d="" fill="#242627" transform="translate(0,0)"/>
<path d="" fill="#225B76" transform="translate(0,0)"/>
<path d="" fill="#2A2C2D" transform="translate(0,0)"/>
<path d="" fill="#2E2D2C" transform="translate(0,0)"/>
<path d="" fill="#2C2E2D" transform="translate(0,0)"/>
<path d="" fill="#2C2E2C" transform="translate(0,0)"/>
<path d="" fill="#2F2F2E" transform="translate(0,0)"/>
<path d="" fill="#242325" transform="translate(0,0)"/>
<path d="" fill="#262626" transform="translate(0,0)"/>
<path d="" fill="#313433" transform="translate(0,0)"/>
<path d="" fill="#7A4948" transform="translate(0,0)"/>
<path d="" fill="#282A29" transform="translate(0,0)"/>
<path d="" fill="#292B2B" transform="translate(0,0)"/>
<path d="" fill="#282A27" transform="translate(0,0)"/>
<path d="" fill="#252A27" transform="translate(0,0)"/>
<path d="" fill="#2B2B2B" transform="translate(0,0)"/>
<path d="" fill="#292A28" transform="translate(0,0)"/>
<path d="" fill="#255C72" transform="translate(0,0)"/>
<path d="" fill="#272828" transform="translate(0,0)"/>
<path d="" fill="#2C2A2C" transform="translate(0,0)"/>
<path d="" fill="#292927" transform="translate(0,0)"/>
<path d="" fill="#272627" transform="translate(0,0)"/>
<path d="" fill="#292A2B" transform="translate(0,0)"/>
<path d="" fill="#222724" transform="translate(0,0)"/>
<path d="" fill="#1F5D77" transform="translate(0,0)"/>
<path d="" fill="#215D77" transform="translate(0,0)"/>
<path d="" fill="#282626" transform="translate(0,0)"/>
<path d="" fill="#282925" transform="translate(0,0)"/>
<path d="" fill="#292B2A" transform="translate(0,0)"/>
<path d="" fill="#282828" transform="translate(0,0)"/>
<path d="" fill="#2A2828" transform="translate(0,0)"/>
<path d="" fill="#272627" transform="translate(0,0)"/>
<path d="" fill="#282928" transform="translate(0,0)"/>
<path d="" fill="#2A2C2B" transform="translate(0,0)"/>
<path d="" fill="#292A2D" transform="translate(0,0)"/>
<path d="" fill="#272928" transform="translate(0,0)"/>
<path d="" fill="#292828" transform="translate(0,0)"/>
<path d="" fill="#262927" transform="translate(0,0)"/>
<path d="" fill="#282A2A" transform="translate(0,0)"/>
<path d="" fill="#2B2C2D" transform="translate(0,0)"/>
<path d="" fill="#262727" transform="translate(0,0)"/>
<path d="" fill="#272728" transform="translate(0,0)"/>
<path d="" fill="#282B2A" transform="translate(0,0)"/>
<path d="" fill="#272927" transform="translate(0,0)"/>
<path d="" fill="#2B2D2B" transform="translate(0,0)"/>
<path d="" fill="#2C2D2D" transform="translate(0,0)"/>
<path d="" fill="#834D4C" transform="translate(0,0)"/>
<path d="" fill="#282A29" transform="translate(0,0)"/>
<path d="" fill="#272B29" transform="translate(0,0)"/>
<path d="" fill="#324B54" transform="translate(0,0)"/>
<path d="" fill="#344D54" transform="translate(0,0)"/>
<path d="" fill="#2B2E2D" transform="translate(0,0)"/>
<path d="" fill="#30302F" transform="translate(0,0)"/>
<path d="" fill="#2F2C2D" transform="translate(0,0)"/>
<path d="" fill="#26292A" transform="translate(0,0)"/>
<path d="" fill="#2F3130" transform="translate(0,0)"/>
<path d="" fill="#272526" transform="translate(0,0)"/>
<path d="" fill="#313235" transform="translate(0,0)"/>
<path d="" fill="#2E302E" transform="translate(0,0)"/>
<path d="" fill="#2F3130" transform="translate(0,0)"/>
<path d="" fill="#333233" transform="translate(0,0)"/>
<path d="" fill="#313432" transform="translate(0,0)"/>
<path d="" fill="#2E322F" transform="translate(0,0)"/>
<path d="" fill="#313332" transform="translate(0,0)"/>
<path d="" fill="#313230" transform="translate(0,0)"/>
<path d="" fill="#265769" transform="translate(0,0)"/>
<path d="" fill="#2A2D2B" transform="translate(0,0)"/>
<path d="" fill="#985650" transform="translate(0,0)"/>
<path d="" fill="#2C2B2B" transform="translate(0,0)"/>
<path d="" fill="#A85A56" transform="translate(0,0)"/>
<path d="" fill="#424D4E" transform="translate(0,0)"/>
<path d="" fill="#2C2E2D" transform="translate(0,0)"/>
<path d="" fill="#9B574E" transform="translate(0,0)"/>
<path d="" fill="#313230" transform="translate(0,0)"/>
<path d="" fill="#2D2F2E" transform="translate(0,0)"/>
<path d="" fill="#4F403D" transform="translate(0,0)"/>
<path d="" fill="#414D51" transform="translate(0,0)"/>
<path d="" fill="#353332" transform="translate(0,0)"/>
<path d="" fill="#303130" transform="translate(0,0)"/>
<path d="" fill="#333231" transform="translate(0,0)"/>
<path d="" fill="#363737" transform="translate(0,0)"/>
<path d="" fill="#333534" transform="translate(0,0)"/>
<path d="" fill="#256170" transform="translate(0,0)"/>
<path d="" fill="#206576" transform="translate(0,0)"/>
<path d="" fill="#393E3C" transform="translate(0,0)"/>
<path d="" fill="#353637" transform="translate(0,0)"/>
<path d="" fill="#333333" transform="translate(0,0)"/>
<path d="" fill="#31312F" transform="translate(0,0)"/>
<path d="" fill="#3E4D50" transform="translate(0,0)"/>
<path d="" fill="#9C564D" transform="translate(0,0)"/>
<path d="" fill="#26707E" transform="translate(0,0)"/>
<path d="" fill="#9D594C" transform="translate(0,0)"/>
<path d="" fill="#404D4F" transform="translate(0,0)"/>
<path d="" fill="#2F555C" transform="translate(0,0)"/>
<path d="" fill="#52433C" transform="translate(0,0)"/>
<path d="" fill="#51443E" transform="translate(0,0)"/>
<path d="" fill="#A6584B" transform="translate(0,0)"/>
<path d="" fill="#A25C4C" transform="translate(0,0)"/>
<path d="" fill="#A45748" transform="translate(0,0)"/>
<path d="" fill="#40504F" transform="translate(0,0)"/>
<path d="" fill="#D78159" transform="translate(0,0)"/>
<path d="" fill="#3D4F50" transform="translate(0,0)"/>
<path d="" fill="#A1624A" transform="translate(0,0)"/>
<path d="" fill="#277A83" transform="translate(0,0)"/>
<path d="" fill="#9B694B" transform="translate(0,0)"/>
<path d="" fill="#A56E4F" transform="translate(0,0)"/>
<path d="" fill="#5D4D3F" transform="translate(0,0)"/>
<path d="" fill="#A06D4C" transform="translate(0,0)"/>
<path d="" fill="#2E8B8E" transform="translate(0,0)"/>
<path d="" fill="#2E6468" transform="translate(0,0)"/>
<path d="" fill="#946A4B" transform="translate(0,0)"/>
<path d="" fill="#93684A" transform="translate(0,0)"/>
<path d="" fill="#2E6369" transform="translate(0,0)"/>
<path d="" fill="#5E513D" transform="translate(0,0)"/>
<path d="" fill="#946F4C" transform="translate(0,0)"/>
<path d="" fill="#A47E55" transform="translate(0,0)"/>
<path d="" fill="#9C7B51" transform="translate(0,0)"/>
<path d="" fill="#927652" transform="translate(0,0)"/>
<path d="" fill="#857353" transform="translate(0,0)"/>
<path d="" fill="#837255" transform="translate(0,0)"/>
<path d="" fill="#86775B" transform="translate(0,0)"/>
<path d="" fill="#599F99" transform="translate(0,0)"/>
<path d="" fill="#727963" transform="translate(0,0)"/>
<path d="" fill="#635440" transform="translate(0,0)"/>
<path d="" fill="#3A4D48" transform="translate(0,0)"/>
<path d="" fill="#3C514E" transform="translate(0,0)"/>
<path d="" fill="#4E8D89" transform="translate(0,0)"/>
<path d="" fill="#577B72" transform="translate(0,0)"/>
<path d="" fill="#508A86" transform="translate(0,0)"/>
<path d="" fill="#577C74" transform="translate(0,0)"/>
<path d="" fill="#407272" transform="translate(0,0)"/>
<path d="" fill="#4B817B" transform="translate(0,0)"/>
<path d="" fill="#605746" transform="translate(0,0)"/>
<path d="" fill="#3C4D4D" transform="translate(0,0)"/>
<path d="" fill="#40504D" transform="translate(0,0)"/>
<path d="" fill="#535149" transform="translate(0,0)"/>
<path d="" fill="#424D4D" transform="translate(0,0)"/>
<path d="" fill="#434F4F" transform="translate(0,0)"/>
</svg>